<?xml version="1.0" encoding="iso-8859-1"?>
<!-- Generator: Adobe Illustrator 19.0.0, SVG Export Plug-In . SVG Version: 6.00 Build 0)  -->
<svg version="1.1" id="Layer_1" xmlns="http://www.w3.org/2000/svg" xmlns:xlink="http://www.w3.org/1999/xlink" x="0px" y="0px"
	 viewBox="0 0 213.48 213.48" style="enable-background:new 0 0 213.48 213.48;" xml:space="preserve">
<g>
	<g>
		<g>
			<path d="M208.589,127.116c-4.859-8.408-12.697-14.425-22.07-16.935l-54.642-14.642l-18.823,70.249l54.642,14.638
				c3.127,0.84,6.301,1.255,9.456,1.255c6.303,0,12.53-1.657,18.14-4.901c8.41-4.861,14.425-12.697,16.935-22.068
				C214.74,145.333,213.448,135.532,208.589,127.116z M204.422,152.621c-1.953,7.288-6.631,13.38-13.175,17.164
				c-6.544,3.78-14.167,4.79-21.461,2.837l-46.838-12.547l14.64-54.64l46.838,12.551c7.29,1.953,13.386,6.633,17.164,13.175
				C205.371,137.702,206.377,145.325,204.422,152.621z"/>
			<path d="M26.962,110.181c-9.373,2.509-17.211,8.527-22.07,16.935c-4.859,8.416-6.152,18.217-3.638,27.596
				c2.509,9.371,8.525,17.207,16.935,22.068c5.611,3.243,11.837,4.901,18.14,4.901c3.155,0,6.329-0.418,9.456-1.255l54.642-14.638
				l-18.823-70.25L26.962,110.181z M43.694,172.622c-7.294,1.949-14.915,0.943-21.461-2.837
				c-6.544-3.784-11.221-9.876-13.175-17.164c-1.955-7.296-0.949-14.919,2.831-21.461c3.778-6.542,9.874-11.221,17.164-13.175
				l46.838-12.551l14.64,54.64L43.694,172.622z"/>
			<path d="M128.962,92.405c8.912,0,16.162-7.25,16.162-16.162s-7.25-16.162-16.162-16.162c-8.912,0-16.162,7.25-16.162,16.162
				S120.051,92.405,128.962,92.405z M128.962,68.163c4.457,0,8.081,3.624,8.081,8.081c0,4.457-3.624,8.081-8.081,8.081
				c-4.457,0-8.081-3.624-8.081-8.081C120.882,71.787,124.506,68.163,128.962,68.163z"/>
			<path d="M72.397,66.143c0,7.797,6.345,14.141,14.141,14.141c7.796,0,14.141-6.345,14.141-14.141
				c0-7.796-6.345-14.141-14.141-14.141C78.742,52.002,72.397,58.346,72.397,66.143z M86.538,60.082
				c3.342,0,6.061,2.719,6.061,6.061s-2.719,6.061-6.061,6.061c-3.342,0-6.061-2.719-6.061-6.061
				C80.478,62.801,83.196,60.082,86.538,60.082z"/>
			<path d="M70.377,52.001c7.797,0,14.141-6.345,14.141-14.141c0-2.231-1.809-4.04-4.04-4.04c-2.231,0-4.04,1.809-4.04,4.04
				c0,3.342-2.719,6.061-6.061,6.061c-2.231,0-4.04,1.809-4.04,4.04C66.336,50.192,68.145,52.001,70.377,52.001z"/>
			<path d="M99.638,93.946c-2.263-0.229-4.206,1.379-4.441,3.596c-0.233,2.217,1.377,4.206,3.596,4.439
				c1.61,0.17,3.056,0.959,4.076,2.217c1.018,1.255,1.486,2.837,1.316,4.447c-0.233,2.217,1.377,4.206,3.596,4.439
				c0.144,0.016,0.286,0.024,0.426,0.024c2.042,0,3.796-1.543,4.015-3.618C113.04,101.737,107.393,94.763,99.638,93.946z"/>
			<path d="M143.546,53.345c0.515,0.219,1.05,0.324,1.576,0.324c1.573-0.002,3.068-0.925,3.721-2.464
				c1.306-3.078,4.871-4.514,7.949-3.21c2.054,0.87,4.425-0.087,5.297-2.141c0.872-2.054-0.087-4.425-2.141-5.297
				c-7.171-3.052-15.499,0.312-18.543,7.491C140.533,50.102,141.492,52.473,143.546,53.345z"/>
			<path d="M112.801,56.042c6.684,0,12.121-5.437,12.121-12.121c0-6.684-5.437-12.121-12.121-12.121
				c-6.684,0-12.121,5.437-12.121,12.121C100.68,50.605,106.117,56.042,112.801,56.042z M112.801,39.88
				c2.227,0,4.04,1.813,4.04,4.04s-1.813,4.04-4.04,4.04s-4.04-1.813-4.04-4.04C108.76,41.693,110.573,39.88,112.801,39.88z"/>
		</g>
	</g>
</g>
<g>
</g>
<g>
</g>
<g>
</g>
<g>
</g>
<g>
</g>
<g>
</g>
<g>
</g>
<g>
</g>
<g>
</g>
<g>
</g>
<g>
</g>
<g>
</g>
<g>
</g>
<g>
</g>
<g>
</g>
</svg>
